<?xml version="1.0" encoding="utf-8"?>
<!-- Generator: Adobe Illustrator 19.2.0, SVG Export Plug-In . SVG Version: 6.00 Build 0)  -->
<svg version="1.1" id="Layer_1" xmlns="http://www.w3.org/2000/svg" xmlns:xlink="http://www.w3.org/1999/xlink" x="0px" y="0px"
	 viewBox="0 0 64 64" style="enable-background:new 0 0 64 64;" xml:space="preserve">
<style type="text/css">
	.st0{fill:#3B3B3B;}
	.st1{fill:#F9F9F9;}
	.st2{fill:#39373A;}
	.st3{fill:#D11519;}
	.st4{fill:#39383A;}
	.st5{fill:#3F3839;}
	.st6{fill:#474747;}
	.st7{fill:#4B4B4D;}
</style>
<g>
	<path class="st0" d="M1.2,32.5c0.1-4.7,0.9-9,2.6-13.1c1.2-2.8,2.7-5.3,4.6-7.6c1.3-1.6,2.7-3,4.2-4.3c1.6-1.3,3.2-2.5,5-3.4
		c1.7-0.9,3.5-1.6,5.3-2.2c1.8-0.6,3.7-0.8,5.5-1.1c1.5-0.3,3-0.3,4.4-0.2c2.2,0.1,4.4,0.4,6.5,1.1c1,0.3,2.1,0.6,3.1,1
		c2.1,0.9,4.2,2,6,3.3c1.8,1.3,3.4,2.7,4.9,4.3c2.2,2.4,4,5.1,5.4,8.1c1.4,3,2.3,6.1,2.8,9.4c0.5,3.3,0.4,6.5-0.1,9.8
		c-0.5,3.2-1.5,6.3-2.9,9.3c-0.9,1.8-2,3.5-3.2,5.2c-1.3,1.7-2.8,3.2-4.3,4.7c-0.5,0.4-1,0.8-1.5,1.2c-0.8,0.6-1.6,1.2-2.4,1.7
		c-1.6,1-3.2,1.8-5,2.5c-0.8,0.3-1.6,0.6-2.4,0.8c-4.8,1.5-9.7,1.5-14.5,0.5c-2.2-0.4-4.3-1.2-6.3-2.2c-1.3-0.6-2.5-1.3-3.7-2.1
		c-2.8-1.9-5.2-4.2-7.2-6.9c-1.7-2.2-3.1-4.6-4.1-7.1c-1.4-3.3-2.2-6.6-2.4-10.2C1.3,33.9,1.3,33.1,1.2,32.5z M1.7,32.4
		c0,5.2,1.3,10.3,3.8,15.2c1.9,3.5,4.4,6.6,7.4,9.2c1.5,1.3,3.2,2.4,4.9,3.4c1.6,0.9,3.3,1.5,5,2.2c1.4,0.5,2.9,0.8,4.4,1
		c3.1,0.5,6.2,0.5,9.4-0.2c2.5-0.5,4.9-1.2,7.3-2.3c1.9-0.9,3.7-2,5.3-3.3c1.7-1.3,3.3-2.8,4.7-4.4c2-2.4,3.6-4.9,4.8-7.8
		c1.4-3.3,2.3-6.7,2.6-10.2c0.5-6.7-0.8-13-4.1-18.9c-1.8-3.1-4-5.8-6.7-8.2c-1.4-1.2-2.9-2.3-4.4-3.2c-1.5-0.9-3.1-1.6-4.7-2.2
		c-1.3-0.5-2.7-0.9-4.1-1.2c-4.2-0.7-8.3-0.8-12.4,0.3c-1.3,0.4-2.6,0.6-3.8,1.2c-1.6,0.7-3.1,1.4-4.5,2.3c-1.1,0.7-2.1,1.4-3.1,2.2
		c-1.6,1.3-3.1,2.8-4.4,4.3c-1.9,2.3-3.5,4.9-4.7,7.6C2.5,23.5,1.7,27.7,1.7,32.4z"/>
	<path class="st1" d="M1.7,32.4c0-4.7,0.9-8.9,2.6-13C5.5,16.6,7,14.1,9,11.8c1.3-1.6,2.8-3.1,4.4-4.3c1-0.8,2-1.5,3.1-2.2
		c1.5-0.9,3-1.6,4.5-2.3c1.2-0.5,2.6-0.8,3.8-1.2c4.1-1.2,8.3-1,12.4-0.3c1.4,0.2,2.8,0.7,4.1,1.2c1.6,0.6,3.2,1.3,4.7,2.2
		c1.6,0.9,3.1,2,4.4,3.2c2.6,2.4,4.9,5.1,6.7,8.2c3.3,5.9,4.7,12.2,4.1,18.9c-0.3,3.5-1.2,6.9-2.6,10.2c-1.2,2.8-2.8,5.4-4.8,7.8
		c-1.4,1.6-2.9,3.1-4.7,4.4c-1.7,1.3-3.4,2.4-5.3,3.3c-2.3,1.1-4.7,1.8-7.3,2.3c-3.1,0.6-6.2,0.6-9.4,0.2c-1.5-0.2-3-0.5-4.4-1
		c-1.7-0.6-3.4-1.3-5-2.2c-1.8-1-3.4-2.1-4.9-3.4c-3-2.6-5.5-5.7-7.4-9.2C2.9,42.7,1.7,37.6,1.7,32.4z M29.3,62.4
		c1.4,0.1,2.8,0.2,4.2,0c0.9,0,1.8-0.2,2.7-0.3c2.7-0.4,5.3-1.3,7.7-2.5c1.2-0.6,2.2-1.3,3.3-2c2-1.3,3.6-2.9,5.2-4.6
		c1.1-1.2,2.1-2.6,3-4c1.5-2.3,2.6-4.7,3.4-7.3c0.7-2.2,1.2-4.5,1.3-6.9c0.2-1.6,0.2-3.2,0-4.8c-0.2-3.2-0.9-6.2-2.1-9.3
		c-0.5,1.5-1,2.8-1.3,4.1c-0.8,3.5-1,7-1.2,10.6c-0.3,4.3-1,8.5-2.7,12.4c-1,2.3-2.5,4.3-4.6,5.7c-1.4,0.9-2.9,1.6-4.5,2.1
		c-1.7,0.6-3.5,0.8-5.3,1c-1.8,0.2-3.5,0.1-5.3-0.2C31.1,56.1,29,56,27,55.3c-1.2-0.4-2.4-0.6-3.6-1.1c-1.7-0.7-3.4-1.3-5-2.2
		c-1.4-0.7-2.6-1.4-3.9-2.2C13,49,11.7,48,10.3,46.9c-0.9-0.7-1.8-1.5-2.6-2.3c-1.3-1.3-2.5-2.7-3.6-4.2c-0.1-0.1-0.2-0.2-0.3-0.1
		C4,41.2,4.3,42,4.6,42.9c0.6,1.7,1.3,3.3,2.2,4.9c1,1.8,2.2,3.5,3.6,5c0.8,0.9,1.7,1.7,2.6,2.6c1.6,1.5,3.4,2.7,5.3,3.8
		c1.4,0.8,2.9,1.4,4.4,1.9C24.9,61.7,27.1,62.2,29.3,62.4z M56.5,17.5c-0.5-1.1-1.2-2.1-1.9-3.1c-0.7-1.1-1.5-2-2.4-3
		C51.1,10.1,49.8,9,48.4,8c-1-0.8-2.1-1.5-3.1-2.1c-1.5-0.9-3.2-1.5-4.8-2.2c-1.2-0.5-2.5-0.7-3.7-1C33.1,2,29.4,1.9,25.7,2.9
		c-1.5,0.4-2.9,0.7-4.3,1.3c-1.2,0.5-2.4,1.1-3.6,1.7c-0.7,0.4-1.4,0.7-2,1.2c-1.9,1.5-3.8,3-5.4,4.8c-1.1,1.2-2.1,2.5-3,3.9
		c-1.6,2.6-2.9,5.5-3.7,8.5C3.4,26,3,27.8,3,29.6c-0.2,0.9-0.1,1.8-0.1,2.8l0,0c0,0.1,0,0.2,0,0.3c0,0.5-0.1,1,0,1.5
		c1,2.7,2.5,5.2,4.5,7.3c1.7,1.7,3.9,2.8,6.2,3.3c4.3,1,8.7,0.6,13-0.3c3.1-0.6,6.3-0.8,9.5-1.2c1.3-0.2,2.5,0.2,3.7,0.6
		c1.1,0.3,2,1,2.9,1.7c1.2,1,2.5,1.9,3.9,2.4c2.6,1,4.3,0.1,5.4-2.5c0.7-1.6,0.9-3.3,1-5c0.2-3.6,0.8-7.2,1.3-10.8
		c0.5-3.7,1.5-7.3,2.5-10.9C57,18.3,56.9,17.9,56.5,17.5z"/>
	<path class="st2" d="M3,29.6C3,27.8,3.4,26,3.8,24.3c0.8-3,2-5.8,3.7-8.5c0.9-1.4,1.9-2.7,3-3.9c1.6-1.8,3.4-3.4,5.4-4.8
		c0.6-0.5,1.3-0.8,2-1.2c1.1-0.6,2.3-1.2,3.6-1.7c1.4-0.5,2.8-0.9,4.3-1.3c3.7-0.9,7.4-0.8,11.1-0.2c1.2,0.2,2.5,0.5,3.7,1
		c1.6,0.6,3.3,1.3,4.8,2.2c1.1,0.6,2.2,1.3,3.1,2.1c-0.4,0.2-0.7,0.6-0.9,1c-0.7,1.3-1.3,2.7-2,4c-1,2-2.1,4-3.2,5.9
		c-1.3,2.5-2.6,5-4,7.4c-1.4,2.4-2.7,4.7-4.4,7C33,34.7,31.8,36,30.2,37c-1.7,1-3.5,1.5-5.6,1.2c-0.5-0.1-1-0.3-1.5-0.4
		c-1.1-0.2-2.1-0.4-3.1-0.9c-1.6-0.8-3.3-1.5-4.9-2.5c-1-0.6-2-1.1-3-1.6c-1.7-0.9-3.4-1.7-5.3-2.3c-0.2-0.1-0.5-0.1-0.7-0.2
		C5.2,29.9,4.1,29.5,3,29.6z"/>
	<path class="st3" d="M3,29.6c1.2-0.1,2.2,0.2,3.3,0.6c0.2,0.1,0.4,0.1,0.7,0.2c1.8,0.6,3.6,1.4,5.3,2.3c1,0.5,2,1,3,1.6
		c1.6,0.9,3.3,1.7,4.9,2.5c0.9,0.5,2,0.7,3.1,0.9c0.5,0.1,0.9,0.4,1.5,0.4c2,0.2,3.9-0.2,5.6-1.2c1.5-0.9,2.8-2.2,3.8-3.7
		c1.6-2.2,3-4.6,4.4-7c1.4-2.4,2.7-4.9,4-7.4c1-2,2.1-4,3.2-5.9c0.7-1.3,1.3-2.7,2-4c0.2-0.4,0.5-0.8,0.9-1c1.4,1,2.7,2.2,3.8,3.4
		c0.9,0.9,1.7,1.9,2.4,3c0.7,1,1.4,2,1.9,3.1c-0.4,1.9-1.2,3.7-1.6,5.5c-0.4,1.7-0.9,3.3-1.2,5c-0.4,1.9-0.7,3.9-1,5.8
		c-0.4,2.5-0.6,4.9-0.9,7.4c-0.1,1.6-0.4,3.1-1.3,4.5c-0.5,0.8-1.2,1.3-2.2,1.3c-1.3-0.1-2.4-0.7-3.4-1.5c-1.1-0.8-2-1.7-3.2-2.3
		c-1.5-0.8-3.1-1.3-4.8-1.3c-1.6,0-3.1,0.2-4.7,0.5c-2.9,0.4-5.7,0.9-8.5,1.3c-1.6,0.3-3.2,0.5-4.9,0.5c-2.3,0.1-4.7,0-6.9-1.1
		c-0.9-0.4-1.8-0.9-2.6-1.4c-1.3-0.9-2.4-2.1-3.4-3.4c-0.8-1.2-1.6-2.4-2.2-3.7c-0.3-0.7-0.4-1.4-0.9-2c0-0.1,0-0.2,0-0.3l0,0l0,0
		C2.8,31.5,2.8,30.5,3,29.6z"/>
	<path class="st4" d="M60.2,34.8c-0.1,2.3-0.6,4.6-1.3,6.9c-0.8,2.6-1.9,5-3.4,7.3c-0.9,1.4-1.9,2.7-3,4c-1.6,1.7-3.3,3.3-5.2,4.6
		c-1.1,0.7-2.2,1.4-3.3,2c-2.5,1.2-5,2.1-7.7,2.5c-0.9,0.1-1.8,0.3-2.7,0.3c-0.2-0.2-0.4-0.1-0.6-0.1c-1,0-1.9,0-2.9,0
		c-0.2,0-0.5-0.1-0.7,0.1c-2.3-0.2-4.5-0.6-6.6-1.3c-1.5-0.5-3-1.1-4.4-1.9c-1.9-1.1-3.7-2.3-5.3-3.8c-0.9-0.8-1.8-1.6-2.6-2.6
		c-1.4-1.6-2.6-3.2-3.6-5c-0.9-1.6-1.6-3.2-2.2-4.9C4.3,42,4,41.2,3.8,40.3c0.2-0.1,0.3,0,0.3,0.1c1.1,1.5,2.3,2.9,3.6,4.2
		c0.8,0.8,1.7,1.6,2.6,2.3c1.4,1,2.7,2.1,4.2,2.9c1.3,0.8,2.6,1.5,3.9,2.2c1.6,0.8,3.3,1.5,5,2.2c1.2,0.5,2.4,0.7,3.6,1.1
		c2,0.7,4.1,0.8,6.1,1.2c1.8,0.3,3.6,0.4,5.3,0.2c1.8-0.2,3.6-0.4,5.3-1c1.6-0.6,3.1-1.2,4.5-2.1c2.1-1.4,3.6-3.4,4.6-5.7
		c1.7-4,2.4-8.1,2.7-12.4c0.2-3.5,0.4-7.1,1.2-10.6c0.3-1.3,0.7-2.7,1.3-4.1c1.2,3.1,1.9,6.1,2.1,9.3c-0.1,0.1-0.1,0.2-0.1,0.3
		c0,1.4,0,2.7,0,4.1C60.1,34.6,60.1,34.7,60.2,34.8z"/>
	<path class="st5" d="M2.9,32.7c0.5,0.6,0.7,1.3,0.9,2C4.4,36,5.2,37.2,6,38.4c0.9,1.3,2.1,2.4,3.4,3.4c0.8,0.6,1.7,1,2.6,1.4
		c2.2,1.1,4.5,1.1,6.9,1.1c1.6,0,3.3-0.3,4.9-0.5c2.8-0.4,5.7-0.9,8.5-1.3c1.6-0.2,3.1-0.4,4.7-0.5c1.7,0,3.3,0.5,4.8,1.3
		c1.2,0.6,2.1,1.6,3.2,2.3c1,0.7,2.1,1.4,3.4,1.5c1,0.1,1.7-0.5,2.2-1.3c0.8-1.4,1.1-2.9,1.3-4.5c0.2-2.5,0.5-4.9,0.9-7.4
		c0.3-1.9,0.6-3.9,1-5.8c0.3-1.7,0.8-3.4,1.2-5c0.5-1.9,1.2-3.6,1.6-5.5c0.4,0.4,0.4,0.9,0.3,1.4c-1,3.6-2,7.2-2.5,10.9
		c-0.5,3.6-1.1,7.1-1.3,10.8c-0.1,1.7-0.3,3.4-1,5C51,48,49.2,49,46.6,48c-1.4-0.6-2.7-1.4-3.9-2.4c-0.8-0.7-1.8-1.4-2.9-1.7
		c-1.2-0.3-2.4-0.7-3.7-0.6c-3.2,0.4-6.3,0.6-9.5,1.2c-4.3,0.9-8.7,1.3-13,0.3c-2.3-0.5-4.5-1.6-6.2-3.3c-2.1-2.1-3.5-4.6-4.5-7.3
		C2.7,33.7,2.8,33.2,2.9,32.7z"/>
	<path class="st6" d="M60.2,34.8c-0.1-0.1-0.1-0.2-0.1-0.3c0-1.4,0-2.7,0-4.1c0-0.1,0-0.3,0.1-0.3C60.4,31.6,60.3,33.2,60.2,34.8z"
		/>
	<path class="st7" d="M29.3,62.4c0.2-0.2,0.5-0.1,0.7-0.1c1,0,1.9,0,2.9,0c0.2,0,0.4-0.1,0.6,0.1C32.1,62.5,30.7,62.5,29.3,62.4z"/>
	<polygon class="st5" points="2.9,32.4 2.9,32.4 2.9,32.4 	"/>
</g>
</svg>
